<svg xmlns="http://www.w3.org/2000/svg" viewBox="-21.679 -24.079 43.358 32.329" role="img" aria-label="國民院複數席次 60">
<title>國民院複數席次 60</title>
<desc>Hemicycle parliament diagram. Each dot is one seat; party members use that party's colour.</desc>
<rect x="-21.679" y="-24.079" width="43.358" height="32.329" fill="#ffffff"/>
<text x="0" y="-22.379" text-anchor="middle" font-family="Noto Sans, DejaVu Sans, sans-serif" font-size="1.35" fill="#111">國民院複數席次 60</text>
<circle cx="-20.0000" cy="-0.0000" r="1.3431" fill="#A73F24" stroke="#ffffff" stroke-width="0.04"/>
<circle cx="-19.7272" cy="-3.2919" r="1.3431" fill="#7DBA00" stroke="#ffffff" stroke-width="0.04"/>
<circle cx="-18.9163" cy="-6.4940" r="1.3431" fill="#7DBA00" stroke="#ffffff" stroke-width="0.04"/>
<circle cx="-17.5895" cy="-9.5189" r="1.3431" fill="#0E5C22" stroke="#ffffff" stroke-width="0.04"/>
<circle cx="-15.7828" cy="-12.2843" r="1.3431" fill="#0E5C22" stroke="#ffffff" stroke-width="0.04"/>
<circle cx="-13.5456" cy="-14.7145" r="1.3431" fill="#0E5C22" stroke="#ffffff" stroke-width="0.04"/>
<circle cx="-10.9390" cy="-16.7433" r="1.3431" fill="#1B9431" stroke="#ffffff" stroke-width="0.04"/>
<circle cx="-8.0339" cy="-18.3155" r="1.3431" fill="#1B9431" stroke="#ffffff" stroke-width="0.04"/>
<circle cx="-4.9097" cy="-19.3880" r="1.3431" fill="#F9BE01" stroke="#ffffff" stroke-width="0.04"/>
<circle cx="-1.6516" cy="-19.9317" r="1.3431" fill="#F9BE01" stroke="#ffffff" stroke-width="0.04"/>
<circle cx="1.6516" cy="-19.9317" r="1.3431" fill="#28C8C8" stroke="#ffffff" stroke-width="0.04"/>
<circle cx="4.9097" cy="-19.3880" r="1.3431" fill="#28C8C8" stroke="#ffffff" stroke-width="0.04"/>
<circle cx="8.0339" cy="-18.3155" r="1.3431" fill="#28C8C8" stroke="#ffffff" stroke-width="0.04"/>
<circle cx="10.9390" cy="-16.7433" r="1.3431" fill="#28C8C8" stroke="#ffffff" stroke-width="0.04"/>
<circle cx="13.5456" cy="-14.7145" r="1.3431" fill="#CCCCCC" stroke="#ffffff" stroke-width="0.04"/>
<circle cx="15.7828" cy="-12.2843" r="1.3431" fill="#000095" stroke="#ffffff" stroke-width="0.04"/>
<circle cx="17.5895" cy="-9.5189" r="1.3431" fill="#000095" stroke="#ffffff" stroke-width="0.04"/>
<circle cx="18.9163" cy="-6.4940" r="1.3431" fill="#4A6CFF" stroke="#ffffff" stroke-width="0.04"/>
<circle cx="19.7272" cy="-3.2919" r="1.3431" fill="#4A6CFF" stroke="#ffffff" stroke-width="0.04"/>
<circle cx="20.0000" cy="0.0000" r="1.3431" fill="#4A6CFF" stroke="#ffffff" stroke-width="0.04"/>
<circle cx="-16.6422" cy="-0.0000" r="1.3431" fill="#A73F24" stroke="#ffffff" stroke-width="0.04"/>
<circle cx="-16.3225" cy="-3.2467" r="1.3431" fill="#7DBA00" stroke="#ffffff" stroke-width="0.04"/>
<circle cx="-15.3754" cy="-6.3687" r="1.3431" fill="#0E5C22" stroke="#ffffff" stroke-width="0.04"/>
<circle cx="-13.8375" cy="-9.2459" r="1.3431" fill="#0E5C22" stroke="#ffffff" stroke-width="0.04"/>
<circle cx="-11.7678" cy="-11.7678" r="1.3431" fill="#0E5C22" stroke="#ffffff" stroke-width="0.04"/>
<circle cx="-9.2459" cy="-13.8375" r="1.3431" fill="#1B9431" stroke="#ffffff" stroke-width="0.04"/>
<circle cx="-6.3687" cy="-15.3754" r="1.3431" fill="#1B9431" stroke="#ffffff" stroke-width="0.04"/>
<circle cx="-3.2467" cy="-16.3225" r="1.3431" fill="#F9BE01" stroke="#ffffff" stroke-width="0.04"/>
<circle cx="0.0000" cy="-16.6422" r="1.3431" fill="#F9BE01" stroke="#ffffff" stroke-width="0.04"/>
<circle cx="3.2467" cy="-16.3225" r="1.3431" fill="#28C8C8" stroke="#ffffff" stroke-width="0.04"/>
<circle cx="6.3687" cy="-15.3754" r="1.3431" fill="#28C8C8" stroke="#ffffff" stroke-width="0.04"/>
<circle cx="9.2459" cy="-13.8375" r="1.3431" fill="#28C8C8" stroke="#ffffff" stroke-width="0.04"/>
<circle cx="11.7678" cy="-11.7678" r="1.3431" fill="#000095" stroke="#ffffff" stroke-width="0.04"/>
<circle cx="13.8375" cy="-9.2459" r="1.3431" fill="#000095" stroke="#ffffff" stroke-width="0.04"/>
<circle cx="15.3754" cy="-6.3687" r="1.3431" fill="#4A6CFF" stroke="#ffffff" stroke-width="0.04"/>
<circle cx="16.3225" cy="-3.2467" r="1.3431" fill="#4A6CFF" stroke="#ffffff" stroke-width="0.04"/>
<circle cx="16.6422" cy="0.0000" r="1.3431" fill="#4A6CFF" stroke="#ffffff" stroke-width="0.04"/>
<circle cx="-13.2845" cy="-0.0000" r="1.3431" fill="#A73F24" stroke="#ffffff" stroke-width="0.04"/>
<circle cx="-12.8318" cy="-3.4383" r="1.3431" fill="#7DBA00" stroke="#ffffff" stroke-width="0.04"/>
<circle cx="-11.5047" cy="-6.6422" r="1.3431" fill="#0E5C22" stroke="#ffffff" stroke-width="0.04"/>
<circle cx="-9.3935" cy="-9.3935" r="1.3431" fill="#0E5C22" stroke="#ffffff" stroke-width="0.04"/>
<circle cx="-6.6422" cy="-11.5047" r="1.3431" fill="#1B9431" stroke="#ffffff" stroke-width="0.04"/>
<circle cx="-3.4383" cy="-12.8318" r="1.3431" fill="#1B9431" stroke="#ffffff" stroke-width="0.04"/>
<circle cx="0.0000" cy="-13.2845" r="1.3431" fill="#F9BE01" stroke="#ffffff" stroke-width="0.04"/>
<circle cx="3.4383" cy="-12.8318" r="1.3431" fill="#28C8C8" stroke="#ffffff" stroke-width="0.04"/>
<circle cx="6.6422" cy="-11.5047" r="1.3431" fill="#28C8C8" stroke="#ffffff" stroke-width="0.04"/>
<circle cx="9.3935" cy="-9.3935" r="1.3431" fill="#CCCCCC" stroke="#ffffff" stroke-width="0.04"/>
<circle cx="11.5047" cy="-6.6422" r="1.3431" fill="#000095" stroke="#ffffff" stroke-width="0.04"/>
<circle cx="12.8318" cy="-3.4383" r="1.3431" fill="#4A6CFF" stroke="#ffffff" stroke-width="0.04"/>
<circle cx="13.2845" cy="0.0000" r="1.3431" fill="#4A6CFF" stroke="#ffffff" stroke-width="0.04"/>
<circle cx="-9.9267" cy="-0.0000" r="1.3431" fill="#A73F24" stroke="#ffffff" stroke-width="0.04"/>
<circle cx="-9.3280" cy="-3.3951" r="1.3431" fill="#0E5C22" stroke="#ffffff" stroke-width="0.04"/>
<circle cx="-7.6043" cy="-6.3808" r="1.3431" fill="#0E5C22" stroke="#ffffff" stroke-width="0.04"/>
<circle cx="-4.9633" cy="-8.5968" r="1.3431" fill="#1B9431" stroke="#ffffff" stroke-width="0.04"/>
<circle cx="-1.7238" cy="-9.7759" r="1.3431" fill="#F9BE01" stroke="#ffffff" stroke-width="0.04"/>
<circle cx="1.7238" cy="-9.7759" r="1.3431" fill="#28C8C8" stroke="#ffffff" stroke-width="0.04"/>
<circle cx="4.9633" cy="-8.5968" r="1.3431" fill="#28C8C8" stroke="#ffffff" stroke-width="0.04"/>
<circle cx="7.6043" cy="-6.3808" r="1.3431" fill="#000095" stroke="#ffffff" stroke-width="0.04"/>
<circle cx="9.3280" cy="-3.3951" r="1.3431" fill="#000095" stroke="#ffffff" stroke-width="0.04"/>
<circle cx="9.9267" cy="0.0000" r="1.3431" fill="#4A6CFF" stroke="#ffffff" stroke-width="0.04"/>
<text x="0" y="-2.400" text-anchor="middle" font-family="Noto Sans, DejaVu Sans, sans-serif" font-size="2.1" font-weight="700" fill="#111">60</text>
<rect x="-21.007" y="1.350" width="1.05" height="1.05" fill="#A73F24" stroke="#555" stroke-width="0.06" rx="0.12"/>
<text x="-19.657" y="2.230" font-family="Noto Sans, DejaVu Sans, sans-serif" font-size="0.95" fill="#111">台灣基進 4</text>
<rect x="-6.555" y="1.350" width="1.05" height="1.05" fill="#7DBA00" stroke="#555" stroke-width="0.06" rx="0.12"/>
<text x="-5.205" y="2.230" font-family="Noto Sans, DejaVu Sans, sans-serif" font-size="0.95" fill="#111">綠黨與環境團體聯盟 4</text>
<rect x="7.898" y="1.350" width="1.05" height="1.05" fill="#0E5C22" stroke="#555" stroke-width="0.06" rx="0.12"/>
<text x="9.248" y="2.230" font-family="Noto Sans, DejaVu Sans, sans-serif" font-size="0.95" fill="#111">民進黨・國會政策派 10</text>
<rect x="-21.007" y="2.900" width="1.05" height="1.05" fill="#1B9431" stroke="#555" stroke-width="0.06" rx="0.12"/>
<text x="-19.657" y="3.780" font-family="Noto Sans, DejaVu Sans, sans-serif" font-size="0.95" fill="#111">民進黨・地方服務派 7</text>
<rect x="-6.555" y="2.900" width="1.05" height="1.05" fill="#F9BE01" stroke="#555" stroke-width="0.06" rx="0.12"/>
<text x="-5.205" y="3.780" font-family="Noto Sans, DejaVu Sans, sans-serif" font-size="0.95" fill="#111">時代力量 6</text>
<rect x="7.898" y="2.900" width="1.05" height="1.05" fill="#28C8C8" stroke="#555" stroke-width="0.06" rx="0.12"/>
<text x="9.248" y="3.780" font-family="Noto Sans, DejaVu Sans, sans-serif" font-size="0.95" fill="#111">台灣民眾黨 11</text>
<rect x="-21.007" y="4.450" width="1.05" height="1.05" fill="#CCCCCC" stroke="#555" stroke-width="0.06" rx="0.12"/>
<text x="-19.657" y="5.330" font-family="Noto Sans, DejaVu Sans, sans-serif" font-size="0.95" fill="#111">無黨籍／地方 2</text>
<rect x="-6.555" y="4.450" width="1.05" height="1.05" fill="#000095" stroke="#555" stroke-width="0.06" rx="0.12"/>
<text x="-5.205" y="5.330" font-family="Noto Sans, DejaVu Sans, sans-serif" font-size="0.95" fill="#111">國民黨・地方服務派 7</text>
<rect x="7.898" y="4.450" width="1.05" height="1.05" fill="#4A6CFF" stroke="#555" stroke-width="0.06" rx="0.12"/>
<text x="9.248" y="5.330" font-family="Noto Sans, DejaVu Sans, sans-serif" font-size="0.95" fill="#111">國民黨・國會政策派 9</text>
<text x="0" y="6.350" text-anchor="middle" font-family="Noto Sans, DejaVu Sans, sans-serif" font-size="0.85" fill="#444">過半 ≥31；這一組成仍碎</text>
</svg>
