<svg xmlns="http://www.w3.org/2000/svg" viewBox="-21.549 -23.949 43.098 32.199" role="img" aria-label="第 3 屆參議院（示意）">
<title>第 3 屆參議院（示意）</title>
<desc>Hemicycle parliament diagram. Each dot is one seat; party members use that party's colour.</desc>
<rect x="-21.549" y="-23.949" width="43.098" height="32.199" fill="#ffffff"/>
<text x="0" y="-22.249" text-anchor="middle" font-family="Noto Sans, DejaVu Sans, sans-serif" font-size="1.35" fill="#111">第 3 屆參議院（示意）</text>
<circle cx="-20.0000" cy="-0.0000" r="1.2391" fill="#A73F24" stroke="#ffffff" stroke-width="0.04"/>
<circle cx="-19.7766" cy="-2.9808" r="1.2391" fill="#7DBA00" stroke="#ffffff" stroke-width="0.04"/>
<circle cx="-19.1115" cy="-5.8951" r="1.2391" fill="#7DBA00" stroke="#ffffff" stroke-width="0.04"/>
<circle cx="-18.0194" cy="-8.6777" r="1.2391" fill="#0E5C22" stroke="#ffffff" stroke-width="0.04"/>
<circle cx="-16.5248" cy="-11.2664" r="1.2391" fill="#0E5C22" stroke="#ffffff" stroke-width="0.04"/>
<circle cx="-14.6610" cy="-13.6035" r="1.2391" fill="#0E5C22" stroke="#ffffff" stroke-width="0.04"/>
<circle cx="-12.4698" cy="-15.6366" r="1.2391" fill="#1B9431" stroke="#ffffff" stroke-width="0.04"/>
<circle cx="-10.0000" cy="-17.3205" r="1.2391" fill="#1B9431" stroke="#ffffff" stroke-width="0.04"/>
<circle cx="-7.3068" cy="-18.6175" r="1.2391" fill="#1B9431" stroke="#ffffff" stroke-width="0.04"/>
<circle cx="-4.4504" cy="-19.4986" r="1.2391" fill="#F9BE01" stroke="#ffffff" stroke-width="0.04"/>
<circle cx="-1.4946" cy="-19.9441" r="1.2391" fill="#F9BE01" stroke="#ffffff" stroke-width="0.04"/>
<circle cx="1.4946" cy="-19.9441" r="1.2391" fill="#28C8C8" stroke="#ffffff" stroke-width="0.04"/>
<circle cx="4.4504" cy="-19.4986" r="1.2391" fill="#28C8C8" stroke="#ffffff" stroke-width="0.04"/>
<circle cx="7.3068" cy="-18.6175" r="1.2391" fill="#28C8C8" stroke="#ffffff" stroke-width="0.04"/>
<circle cx="10.0000" cy="-17.3205" r="1.2391" fill="#28C8C8" stroke="#ffffff" stroke-width="0.04"/>
<circle cx="12.4698" cy="-15.6366" r="1.2391" fill="#CCCCCC" stroke="#ffffff" stroke-width="0.04"/>
<circle cx="14.6610" cy="-13.6035" r="1.2391" fill="#000095" stroke="#ffffff" stroke-width="0.04"/>
<circle cx="16.5248" cy="-11.2664" r="1.2391" fill="#000095" stroke="#ffffff" stroke-width="0.04"/>
<circle cx="18.0194" cy="-8.6777" r="1.2391" fill="#000095" stroke="#ffffff" stroke-width="0.04"/>
<circle cx="19.1115" cy="-5.8951" r="1.2391" fill="#4A6CFF" stroke="#ffffff" stroke-width="0.04"/>
<circle cx="19.7766" cy="-2.9808" r="1.2391" fill="#4A6CFF" stroke="#ffffff" stroke-width="0.04"/>
<circle cx="20.0000" cy="0.0000" r="1.2391" fill="#4A6CFF" stroke="#ffffff" stroke-width="0.04"/>
<circle cx="-16.9023" cy="-0.0000" r="1.2391" fill="#A73F24" stroke="#ffffff" stroke-width="0.04"/>
<circle cx="-16.6145" cy="-3.1058" r="1.2391" fill="#7DBA00" stroke="#ffffff" stroke-width="0.04"/>
<circle cx="-15.7609" cy="-6.1058" r="1.2391" fill="#0E5C22" stroke="#ffffff" stroke-width="0.04"/>
<circle cx="-14.3706" cy="-8.8979" r="1.2391" fill="#0E5C22" stroke="#ffffff" stroke-width="0.04"/>
<circle cx="-12.4909" cy="-11.3870" r="1.2391" fill="#0E5C22" stroke="#ffffff" stroke-width="0.04"/>
<circle cx="-10.1859" cy="-13.4883" r="1.2391" fill="#1B9431" stroke="#ffffff" stroke-width="0.04"/>
<circle cx="-7.5340" cy="-15.1303" r="1.2391" fill="#1B9431" stroke="#ffffff" stroke-width="0.04"/>
<circle cx="-4.6255" cy="-16.2570" r="1.2391" fill="#F9BE01" stroke="#ffffff" stroke-width="0.04"/>
<circle cx="-1.5595" cy="-16.8302" r="1.2391" fill="#F9BE01" stroke="#ffffff" stroke-width="0.04"/>
<circle cx="1.5595" cy="-16.8302" r="1.2391" fill="#28C8C8" stroke="#ffffff" stroke-width="0.04"/>
<circle cx="4.6255" cy="-16.2570" r="1.2391" fill="#28C8C8" stroke="#ffffff" stroke-width="0.04"/>
<circle cx="7.5340" cy="-15.1303" r="1.2391" fill="#28C8C8" stroke="#ffffff" stroke-width="0.04"/>
<circle cx="10.1859" cy="-13.4883" r="1.2391" fill="#28C8C8" stroke="#ffffff" stroke-width="0.04"/>
<circle cx="12.4909" cy="-11.3870" r="1.2391" fill="#CCCCCC" stroke="#ffffff" stroke-width="0.04"/>
<circle cx="14.3706" cy="-8.8979" r="1.2391" fill="#000095" stroke="#ffffff" stroke-width="0.04"/>
<circle cx="15.7609" cy="-6.1058" r="1.2391" fill="#4A6CFF" stroke="#ffffff" stroke-width="0.04"/>
<circle cx="16.6145" cy="-3.1058" r="1.2391" fill="#4A6CFF" stroke="#ffffff" stroke-width="0.04"/>
<circle cx="16.9023" cy="0.0000" r="1.2391" fill="#4A6CFF" stroke="#ffffff" stroke-width="0.04"/>
<circle cx="-13.8045" cy="-0.0000" r="1.2391" fill="#A73F24" stroke="#ffffff" stroke-width="0.04"/>
<circle cx="-13.4584" cy="-3.0718" r="1.2391" fill="#7DBA00" stroke="#ffffff" stroke-width="0.04"/>
<circle cx="-12.4375" cy="-5.9896" r="1.2391" fill="#0E5C22" stroke="#ffffff" stroke-width="0.04"/>
<circle cx="-10.7928" cy="-8.6070" r="1.2391" fill="#0E5C22" stroke="#ffffff" stroke-width="0.04"/>
<circle cx="-8.6070" cy="-10.7928" r="1.2391" fill="#1B9431" stroke="#ffffff" stroke-width="0.04"/>
<circle cx="-5.9896" cy="-12.4375" r="1.2391" fill="#1B9431" stroke="#ffffff" stroke-width="0.04"/>
<circle cx="-3.0718" cy="-13.4584" r="1.2391" fill="#F9BE01" stroke="#ffffff" stroke-width="0.04"/>
<circle cx="0.0000" cy="-13.8045" r="1.2391" fill="#F9BE01" stroke="#ffffff" stroke-width="0.04"/>
<circle cx="3.0718" cy="-13.4584" r="1.2391" fill="#28C8C8" stroke="#ffffff" stroke-width="0.04"/>
<circle cx="5.9896" cy="-12.4375" r="1.2391" fill="#28C8C8" stroke="#ffffff" stroke-width="0.04"/>
<circle cx="8.6070" cy="-10.7928" r="1.2391" fill="#28C8C8" stroke="#ffffff" stroke-width="0.04"/>
<circle cx="10.7928" cy="-8.6070" r="1.2391" fill="#000095" stroke="#ffffff" stroke-width="0.04"/>
<circle cx="12.4375" cy="-5.9896" r="1.2391" fill="#000095" stroke="#ffffff" stroke-width="0.04"/>
<circle cx="13.4584" cy="-3.0718" r="1.2391" fill="#4A6CFF" stroke="#ffffff" stroke-width="0.04"/>
<circle cx="13.8045" cy="0.0000" r="1.2391" fill="#4A6CFF" stroke="#ffffff" stroke-width="0.04"/>
<circle cx="-10.7068" cy="-0.0000" r="1.2391" fill="#A73F24" stroke="#ffffff" stroke-width="0.04"/>
<circle cx="-10.2731" cy="-3.0165" r="1.2391" fill="#7DBA00" stroke="#ffffff" stroke-width="0.04"/>
<circle cx="-9.0071" cy="-5.7885" r="1.2391" fill="#0E5C22" stroke="#ffffff" stroke-width="0.04"/>
<circle cx="-7.0115" cy="-8.0917" r="1.2391" fill="#0E5C22" stroke="#ffffff" stroke-width="0.04"/>
<circle cx="-4.4478" cy="-9.7393" r="1.2391" fill="#1B9431" stroke="#ffffff" stroke-width="0.04"/>
<circle cx="-1.5237" cy="-10.5978" r="1.2391" fill="#F9BE01" stroke="#ffffff" stroke-width="0.04"/>
<circle cx="1.5237" cy="-10.5978" r="1.2391" fill="#28C8C8" stroke="#ffffff" stroke-width="0.04"/>
<circle cx="4.4478" cy="-9.7393" r="1.2391" fill="#28C8C8" stroke="#ffffff" stroke-width="0.04"/>
<circle cx="7.0115" cy="-8.0917" r="1.2391" fill="#CCCCCC" stroke="#ffffff" stroke-width="0.04"/>
<circle cx="9.0071" cy="-5.7885" r="1.2391" fill="#000095" stroke="#ffffff" stroke-width="0.04"/>
<circle cx="10.2731" cy="-3.0165" r="1.2391" fill="#4A6CFF" stroke="#ffffff" stroke-width="0.04"/>
<circle cx="10.7068" cy="0.0000" r="1.2391" fill="#4A6CFF" stroke="#ffffff" stroke-width="0.04"/>
<circle cx="-7.6091" cy="-0.0000" r="1.2391" fill="#A73F24" stroke="#ffffff" stroke-width="0.04"/>
<circle cx="-6.8555" cy="-3.3015" r="1.2391" fill="#0E5C22" stroke="#ffffff" stroke-width="0.04"/>
<circle cx="-4.7442" cy="-5.9490" r="1.2391" fill="#0E5C22" stroke="#ffffff" stroke-width="0.04"/>
<circle cx="-1.6932" cy="-7.4183" r="1.2391" fill="#F9BE01" stroke="#ffffff" stroke-width="0.04"/>
<circle cx="1.6932" cy="-7.4183" r="1.2391" fill="#28C8C8" stroke="#ffffff" stroke-width="0.04"/>
<circle cx="4.7442" cy="-5.9490" r="1.2391" fill="#28C8C8" stroke="#ffffff" stroke-width="0.04"/>
<circle cx="6.8555" cy="-3.3015" r="1.2391" fill="#000095" stroke="#ffffff" stroke-width="0.04"/>
<circle cx="7.6091" cy="0.0000" r="1.2391" fill="#4A6CFF" stroke="#ffffff" stroke-width="0.04"/>
<text x="0" y="-2.400" text-anchor="middle" font-family="Noto Sans, DejaVu Sans, sans-serif" font-size="2.1" font-weight="700" fill="#111">75</text>
<rect x="-20.929" y="1.350" width="1.05" height="1.05" fill="#A73F24" stroke="#555" stroke-width="0.06" rx="0.12"/>
<text x="-19.579" y="2.230" font-family="Noto Sans, DejaVu Sans, sans-serif" font-size="0.95" fill="#111">台灣基進 5</text>
<rect x="-6.563" y="1.350" width="1.05" height="1.05" fill="#7DBA00" stroke="#555" stroke-width="0.06" rx="0.12"/>
<text x="-5.213" y="2.230" font-family="Noto Sans, DejaVu Sans, sans-serif" font-size="0.95" fill="#111">綠黨與環境團體聯盟 5</text>
<rect x="7.803" y="1.350" width="1.05" height="1.05" fill="#0E5C22" stroke="#555" stroke-width="0.06" rx="0.12"/>
<text x="9.153" y="2.230" font-family="Noto Sans, DejaVu Sans, sans-serif" font-size="0.95" fill="#111">民進黨・國會政策派 12</text>
<rect x="-20.929" y="2.900" width="1.05" height="1.05" fill="#1B9431" stroke="#555" stroke-width="0.06" rx="0.12"/>
<text x="-19.579" y="3.780" font-family="Noto Sans, DejaVu Sans, sans-serif" font-size="0.95" fill="#111">民進黨・地方服務派 8</text>
<rect x="-6.563" y="2.900" width="1.05" height="1.05" fill="#F9BE01" stroke="#555" stroke-width="0.06" rx="0.12"/>
<text x="-5.213" y="3.780" font-family="Noto Sans, DejaVu Sans, sans-serif" font-size="0.95" fill="#111">時代力量 8</text>
<rect x="7.803" y="2.900" width="1.05" height="1.05" fill="#28C8C8" stroke="#555" stroke-width="0.06" rx="0.12"/>
<text x="9.153" y="3.780" font-family="Noto Sans, DejaVu Sans, sans-serif" font-size="0.95" fill="#111">台灣民眾黨 15</text>
<rect x="-20.929" y="4.450" width="1.05" height="1.05" fill="#CCCCCC" stroke="#555" stroke-width="0.06" rx="0.12"/>
<text x="-19.579" y="5.330" font-family="Noto Sans, DejaVu Sans, sans-serif" font-size="0.95" fill="#111">無黨籍／地方 3</text>
<rect x="-6.563" y="4.450" width="1.05" height="1.05" fill="#000095" stroke="#555" stroke-width="0.06" rx="0.12"/>
<text x="-5.213" y="5.330" font-family="Noto Sans, DejaVu Sans, sans-serif" font-size="0.95" fill="#111">國民黨・地方服務派 8</text>
<rect x="7.803" y="4.450" width="1.05" height="1.05" fill="#4A6CFF" stroke="#555" stroke-width="0.06" rx="0.12"/>
<text x="9.153" y="5.330" font-family="Noto Sans, DejaVu Sans, sans-serif" font-size="0.95" fill="#111">國民黨・國會政策派 11</text>
<text x="0" y="6.350" text-anchor="middle" font-family="Noto Sans, DejaVu Sans, sans-serif" font-size="0.85" fill="#444">75 席；過半／延宕 38；基本法／修憲 3/5＝45；不掌行政</text>
</svg>
